<?xml version="1.0" encoding="utf-8"?>
<!-- Generator: Adobe Illustrator 16.0.0, SVG Export Plug-In . SVG Version: 6.00 Build 0)  -->
<!DOCTYPE svg PUBLIC "-//W3C//DTD SVG 1.1//EN" "http://www.w3.org/Graphics/SVG/1.1/DTD/svg11.dtd">
<svg version="1.1" id="Layer_1" xmlns="http://www.w3.org/2000/svg" xmlns:xlink="http://www.w3.org/1999/xlink" x="0px" y="0px"
	 width="305.834px" height="48px" viewBox="242.74 281.5 305.834 48" enable-background="new 242.74 281.5 305.834 48"
	 xml:space="preserve">
<g>
	<path fill="#8A8C8E" d="M251.154,297.187v5.409h9.489v7.126h-9.489v5.58h10.003v7.127H242.74v-32.37h18.417v7.127H251.154z"/>
	<path fill="#8A8C8E" d="M276.184,315.302h10.089v7.128H267.77v-32.37h8.414V315.302z"/>
	<path fill="#8A8C8E" d="M294,290.06h8.288l6.567,17.299l6.956-17.299h8.371l4.894,32.37h-8.414l-2.362-18.632h-0.084l-7.771,18.632
		h-3.351l-7.426-18.632h-0.086l-2.706,18.632h-8.371L294,290.06z"/>
</g>
<g>
	<path fill="#1E6131" d="M398.003,322.43h-8.414v-25.243h-6.956v-7.127h22.327v7.127h-6.957V322.43z"/>
	<path fill="#1E6131" d="M415.101,316.805l-2.232,5.625h-8.93l12.447-32.37h9.188l12.191,32.37h-8.974l-2.104-5.625H415.101z
		 M420.98,300.062h-0.088l-3.476,10.302h6.996L420.98,300.062z"/>
	<path fill="#1E6131" d="M450.217,315.302h10.09v7.128h-18.504v-32.37h8.414V315.302z"/>
	<path fill="#1E6131" d="M472.885,297.187v5.409h9.489v7.126h-9.489v5.58h10.003v7.127h-18.417v-32.37h18.417v7.127H472.885z"/>
	<path fill="#1E6131" d="M489.499,290.06h8.415l15.412,19.792h0.087V290.06h8.413v32.37h-8.413l-15.412-19.833h-0.087v19.833h-8.415
		V290.06L489.499,290.06z"/>
	<path fill="#1E6131" d="M541.62,322.43h-8.416v-25.243h-6.954v-7.127h22.324v7.127h-6.954V322.43z"/>
</g>
<g>
	<path fill="#1E6131" d="M357.449,295.615c0.541,0.002,1.082,0.062,1.6,0.191c1.373,0.336,2.572,1.158,3.146,2.37
		c0.34,0.717,0.445,1.505,0.398,2.281c0.932,0.068,1.854,0.28,2.691,0.658c0.998,0.451,1.862,1.153,2.384,2.064
		c0.283,0.497,0.458,1.043,0.527,1.599c0.062,0.513,0.025,2.01,0.025,2.248c0,4.334-6.462,3.744-6.462,3.744l0.003,2.192
		c0,0,1.214,0.024,2.073,0.024c9.333,0,6.821-9.78,6.153-10.854c-0.632-1.022-1.534-1.886-2.555-2.588
		c-0.522-0.357-1.075-0.675-1.652-0.955c-0.258-0.126-0.962-0.346-1.021-0.483c-0.278-0.649-0.723-5.041-7.313-5.041h-0.048
		c-6.593,0-7.037,4.391-7.316,5.041c-0.059,0.137-0.165,0.252-0.325,0.292c-0.263,0.065-1.826,0.789-2.346,1.148
		c-1.025,0.703-1.923,1.566-2.557,2.586c-0.668,1.077-3.288,10.854,6.153,10.854c0.988,0,2.415,0.015,2.415,0.015l0.014-2.381
		c0,0-6.812,0.623-6.812-3.595c0-0.236-0.039-1.732,0.024-2.245c0.069-0.56,0.243-1.106,0.528-1.604
		c0.52-0.911,1.383-1.611,2.381-2.062c0.839-0.38,1.762-0.593,2.691-0.661c-0.044-0.772,0.061-1.564,0.399-2.278
		c0.574-1.214,1.773-2.033,3.146-2.372c0.52-0.126,1.059-0.189,1.603-0.189L357.449,295.615z"/>
	<path fill="#1E6131" d="M353.79,313.371l-0.368-0.002c-0.001,0-1.424-0.014-2.411-0.014c-3.145,0-5.324-1.051-6.475-3.119
		c-1.768-3.176-0.402-7.629,0.012-8.297c0.623-1.006,1.518-1.91,2.659-2.696c0.539-0.369,2.146-1.121,2.467-1.2
		c0.012-0.004,0.047-0.011,0.075-0.079c0.028-0.061,0.054-0.159,0.086-0.287c0.35-1.228,1.405-4.977,7.566-4.977
		c6.21,0,7.265,3.749,7.609,4.982c0.023,0.086,0.044,0.158,0.063,0.214c0.106,0.059,0.353,0.154,0.493,0.21
		c0.148,0.056,0.286,0.112,0.378,0.154c0.603,0.294,1.177,0.626,1.697,0.983c1.144,0.787,2.035,1.692,2.66,2.696
		c0.407,0.661,1.746,5.086-0.038,8.292c-1.151,2.071-3.315,3.125-6.429,3.125c-0.864,0-2.083-0.028-2.083-0.028l-0.356-0.007
		l-0.004-2.949l0.398,0.035c0.042,0.005,6.065,0.529,6.065-3.381l0.002-0.244c0.007-0.467,0.021-1.562-0.026-1.959
		c-0.065-0.525-0.229-1.02-0.483-1.463c-0.454-0.801-1.223-1.461-2.216-1.912c-0.769-0.348-1.631-0.558-2.565-0.625l-0.358-0.026
		l0.02-0.359c0.047-0.789-0.075-1.497-0.363-2.101c-0.499-1.053-1.557-1.844-2.904-2.173c-0.479-0.119-0.986-0.18-1.514-0.18
		c-0.562,0-1.072,0.061-1.562,0.18c-1.347,0.332-2.402,1.123-2.9,2.173c-0.289,0.607-0.411,1.314-0.368,2.101l0.021,0.359
		l-0.357,0.028c-0.936,0.068-1.798,0.278-2.566,0.626c-0.994,0.448-1.759,1.109-2.217,1.912c-0.253,0.444-0.415,0.937-0.482,1.464
		c-0.049,0.397-0.031,1.492-0.024,1.957l0.004,0.244c0,2.943,3.876,3.262,5.541,3.262c0.524,0,0.866-0.03,0.873-0.03l0.399-0.037
		L353.79,313.371z M357.449,293.43c-5.655,0-6.565,3.229-6.909,4.447c-0.046,0.166-0.084,0.294-0.119,0.373
		c-0.11,0.26-0.314,0.437-0.572,0.502c-0.206,0.051-1.72,0.745-2.229,1.095c-1.057,0.726-1.882,1.56-2.451,2.477
		c-0.329,0.53-1.602,4.669,0.007,7.554c1.013,1.819,2.978,2.743,5.835,2.743c0.68,0,1.562,0.007,2.054,0.012l0.008-1.625
		c-0.146,0.006-0.328,0.01-0.538,0.01c-1.886,0-6.272-0.391-6.272-3.992l-0.003-0.232c-0.007-0.523-0.022-1.611,0.031-2.057
		c0.079-0.625,0.272-1.211,0.574-1.739c0.532-0.936,1.415-1.702,2.549-2.213c0.75-0.339,1.577-0.561,2.464-0.661
		c0-0.77,0.15-1.475,0.448-2.103c0.591-1.247,1.826-2.185,3.387-2.566c1.154-0.282,2.407-0.254,3.425-0.002
		c1.562,0.383,2.795,1.318,3.389,2.568c0.298,0.625,0.445,1.333,0.445,2.103c0.889,0.098,1.715,0.32,2.467,0.658
		c1.133,0.514,2.016,1.28,2.548,2.216c0.301,0.527,0.495,1.111,0.575,1.737c0.053,0.445,0.036,1.536,0.029,2.059l-0.004,0.232
		c0,4.041-4.986,4.182-6.46,4.133l0.002,1.445c0.424,0.008,1.143,0.019,1.709,0.019c2.829,0,4.776-0.923,5.792-2.748
		c1.623-2.916,0.378-7.026,0.051-7.549c-0.566-0.917-1.394-1.751-2.45-2.479c-0.491-0.338-1.031-0.649-1.605-0.927
		c-0.076-0.037-0.195-0.082-0.321-0.133c-0.522-0.203-0.776-0.308-0.875-0.532c-0.036-0.082-0.072-0.21-0.119-0.374
		C363.967,296.661,363.058,293.43,357.449,293.43z"/>
</g>
<polygon fill="#8A8C8E" points="358.12,307.381 355.478,310.027 350.618,305.159 353.262,302.511 "/>
<polygon fill="#8A8C8E" points="361.708,302.507 364.488,305.296 359.63,310.164 356.85,307.377 "/>
<rect x="355.399" y="308.004" fill="#8A8C8E" width="4.23" height="16.33"/>
<path fill="#8A8C8E" d="M357.491,326.023c-10.927,0-19.819-8.893-19.819-19.819c0-10.927,8.893-19.817,19.819-19.817
	c10.928,0,19.817,8.89,19.817,19.817C377.309,317.132,368.419,326.023,357.491,326.023z M357.491,289.674
	c-9.115,0-16.529,7.414-16.529,16.53c0,9.114,7.414,16.53,16.529,16.53s16.528-7.416,16.528-16.53
	C374.02,297.088,366.606,289.674,357.491,289.674z"/>
</svg>
